<svg width="504" height="500" viewBox="0 0 504 500" fill="none" xmlns="http://www.w3.org/2000/svg">
    <path fill-rule="evenodd" clip-rule="evenodd"
        d="M292.179 55.608C354.081 54.059 413.429 -23.7949 466.591 7.34502C518.177 37.562 502.509 117.992 499.122 176.826C496.651 219.746 469.781 254.671 450.139 293.102C433.983 324.712 416.447 352.946 394.695 381.145C362.311 423.127 344.368 485.567 292.179 497.878C239.85 510.222 193.055 465.799 146.243 439.754C92.691 409.96 9.43401 395.43 0.630011 335.669C-8.57479 273.189 85.806 243.31 108.606 184.273C129.467 130.255 76.196 49.499 124.115 15.913C172.172 -17.77 233.129 57.085 292.179 55.608Z"
        fill="currentColor" />
</svg>